<svg xmlns="http://www.w3.org/2000/svg" xmlns:xlink="http://www.w3.org/1999/xlink" width="300" zoomAndPan="magnify" viewBox="0 0 224.87999 74.999997" height="100" preserveAspectRatio="xMidYMid meet" version="1.0"><defs><g/><clipPath id="177bb7166c"><path d="M 0 0.0195312 L 224.761719 0.0195312 L 224.761719 74.980469 L 0 74.980469 Z M 0 0.0195312 " clip-rule="nonzero"/></clipPath></defs><g clip-path="url(#177bb7166c)"><path fill="#ffffff" d="M 0 0.0195312 L 224.878906 0.0195312 L 224.878906 74.980469 L 0 74.980469 Z M 0 0.0195312 " fill-opacity="1" fill-rule="nonzero"/><path fill="#000000" d="M 0 0.0195312 L 224.878906 0.0195312 L 224.878906 74.980469 L 0 74.980469 Z M 0 0.0195312 " fill-opacity="1" fill-rule="nonzero"/></g><g fill="#ffffff" fill-opacity="1"><g transform="translate(10.753932, 51.527195)"><g><path d="M 7.3125 -9.390625 L 7.3125 0 L 1.875 0 L 1.875 -26.140625 L 10.453125 -26.140625 C 11.523438 -26.140625 12.59375 -26.035156 13.65625 -25.828125 C 14.71875 -25.628906 15.695312 -25.253906 16.59375 -24.703125 C 17.488281 -24.160156 18.203125 -23.359375 18.734375 -22.296875 C 19.273438 -21.242188 19.546875 -19.84375 19.546875 -18.09375 L 19.546875 -17.421875 C 19.546875 -15.679688 19.273438 -14.28125 18.734375 -13.21875 C 18.203125 -12.15625 17.488281 -11.34375 16.59375 -10.78125 C 15.695312 -10.226562 14.71875 -9.859375 13.65625 -9.671875 C 12.59375 -9.484375 11.523438 -9.390625 10.453125 -9.390625 Z M 7.3125 -14.078125 L 10.6875 -14.078125 C 11.175781 -14.078125 11.675781 -14.164062 12.1875 -14.34375 C 12.707031 -14.519531 13.144531 -14.859375 13.5 -15.359375 C 13.863281 -15.867188 14.046875 -16.613281 14.046875 -17.59375 L 14.046875 -17.9375 C 14.046875 -18.914062 13.863281 -19.65625 13.5 -20.15625 C 13.144531 -20.65625 12.707031 -20.992188 12.1875 -21.171875 C 11.675781 -21.359375 11.175781 -21.453125 10.6875 -21.453125 L 7.3125 -21.453125 Z M 7.3125 -14.078125 "/></g></g></g><g fill="#ffffff" fill-opacity="1"><g transform="translate(35.285921, 51.527195)"><g><path d="M 7.3125 -9.390625 L 7.3125 0 L 1.875 0 L 1.875 -26.140625 L 10.453125 -26.140625 C 11.523438 -26.140625 12.59375 -26.035156 13.65625 -25.828125 C 14.71875 -25.628906 15.695312 -25.253906 16.59375 -24.703125 C 17.488281 -24.160156 18.203125 -23.359375 18.734375 -22.296875 C 19.273438 -21.242188 19.546875 -19.84375 19.546875 -18.09375 L 19.546875 -17.421875 C 19.546875 -15.328125 19.148438 -13.710938 18.359375 -12.578125 C 17.578125 -11.453125 16.597656 -10.644531 15.421875 -10.15625 L 19.546875 0 L 13.671875 0 L 10.09375 -9.390625 Z M 7.3125 -14.078125 L 10.6875 -14.078125 C 11.175781 -14.078125 11.675781 -14.164062 12.1875 -14.34375 C 12.707031 -14.519531 13.144531 -14.859375 13.5 -15.359375 C 13.863281 -15.867188 14.046875 -16.613281 14.046875 -17.59375 L 14.046875 -17.9375 C 14.046875 -18.914062 13.863281 -19.65625 13.5 -20.15625 C 13.144531 -20.65625 12.707031 -20.992188 12.1875 -21.171875 C 11.675781 -21.359375 11.175781 -21.453125 10.6875 -21.453125 L 7.3125 -21.453125 Z M 7.3125 -14.078125 "/></g></g></g><g fill="#ffffff" fill-opacity="1"><g transform="translate(60.287094, 51.527195)"><g><path d="M 7.46875 -26.140625 L 7.46875 0 L 2.046875 0 L 2.046875 -26.140625 Z M 7.46875 -26.140625 "/></g></g></g><g fill="#ffffff" fill-opacity="1"><g transform="translate(73.893891, 51.527195)"><g><path d="M 21.984375 -16.71875 L 17.328125 0 L 11.796875 0 L 7.140625 -16.71875 L 7.3125 -11.5 L 7.3125 0 L 1.875 0 L 1.875 -26.140625 L 9.890625 -26.140625 L 14.578125 -9.421875 L 19.234375 -26.140625 L 27.28125 -26.140625 L 27.28125 0 L 21.859375 0 L 21.859375 -11.5 Z M 21.984375 -16.71875 "/></g></g></g><g fill="#ffffff" fill-opacity="1"><g transform="translate(107.139225, 51.527195)"><g><path d="M 1.875 -26.140625 L 17.859375 -26.140625 L 17.859375 -21.453125 L 7.3125 -21.453125 L 7.3125 -15.6875 L 16.1875 -15.6875 L 16.1875 -11 L 7.3125 -11 L 7.3125 -4.6875 L 17.859375 -4.6875 L 17.859375 0 L 1.875 0 Z M 1.875 -26.140625 "/></g></g></g><g fill="#ffffff" fill-opacity="1"><g transform="translate(130.464752, 51.527195)"><g><path d="M 9.71875 -10.921875 C 6.882812 -11.304688 4.78125 -12.0625 3.40625 -13.1875 C 2.03125 -14.3125 1.34375 -16.0625 1.34375 -18.4375 L 1.34375 -18.796875 C 1.34375 -21.171875 2.132812 -23.0625 3.71875 -24.46875 C 5.300781 -25.875 7.582031 -26.578125 10.5625 -26.578125 C 13.78125 -26.578125 16.125 -25.84375 17.59375 -24.375 C 19.070312 -22.914062 19.8125 -20.65625 19.8125 -17.59375 L 19.8125 -16.890625 L 14.375 -16.890625 C 14.375 -18.609375 14.085938 -19.867188 13.515625 -20.671875 C 12.953125 -21.484375 11.976562 -21.890625 10.59375 -21.890625 L 10.296875 -21.890625 C 9.191406 -21.890625 8.335938 -21.617188 7.734375 -21.078125 C 7.140625 -20.546875 6.84375 -19.851562 6.84375 -19 L 6.84375 -18.828125 C 6.84375 -18.203125 6.957031 -17.664062 7.1875 -17.21875 C 7.425781 -16.78125 7.875 -16.414062 8.53125 -16.125 C 9.1875 -15.832031 10.148438 -15.597656 11.421875 -15.421875 C 14.285156 -15.035156 16.429688 -14.285156 17.859375 -13.171875 C 19.296875 -12.054688 20.015625 -10.28125 20.015625 -7.84375 L 20.015625 -7.5 C 20.015625 -5 19.203125 -3.050781 17.578125 -1.65625 C 15.960938 -0.257812 13.625 0.4375 10.5625 0.4375 C 7.476562 0.4375 5.132812 -0.28125 3.53125 -1.71875 C 1.9375 -3.164062 1.140625 -5.460938 1.140625 -8.609375 L 1.140625 -8.921875 L 6.5625 -8.921875 C 6.5625 -7.285156 6.890625 -6.097656 7.546875 -5.359375 C 8.210938 -4.617188 9.171875 -4.25 10.421875 -4.25 L 10.71875 -4.25 C 11.976562 -4.25 12.921875 -4.546875 13.546875 -5.140625 C 14.171875 -5.734375 14.484375 -6.46875 14.484375 -7.34375 L 14.484375 -7.5 C 14.484375 -8.132812 14.347656 -8.671875 14.078125 -9.109375 C 13.804688 -9.554688 13.328125 -9.929688 12.640625 -10.234375 C 11.960938 -10.535156 10.988281 -10.765625 9.71875 -10.921875 Z M 9.71875 -10.921875 "/></g></g></g><g fill="#ffffff" fill-opacity="1"><g transform="translate(155.734019, 51.527195)"><g/></g></g><g fill="#ffffff" fill-opacity="1"><g transform="translate(166.55924, 51.527195)"><g><path d="M 11.265625 0.4375 C 7.890625 0.4375 5.382812 -0.570312 3.75 -2.59375 C 2.125 -4.613281 1.3125 -7.882812 1.3125 -12.40625 L 1.3125 -13.734375 C 1.3125 -18.273438 2.125 -21.550781 3.75 -23.5625 C 5.382812 -25.570312 7.890625 -26.578125 11.265625 -26.578125 C 14.660156 -26.578125 17.171875 -25.570312 18.796875 -23.5625 C 20.429688 -21.550781 21.25 -18.273438 21.25 -13.734375 L 21.25 -12.40625 C 21.25 -9.207031 20.835938 -6.640625 20.015625 -4.703125 C 19.203125 -2.773438 17.957031 -1.394531 16.28125 -0.5625 L 17.859375 3.359375 L 13.640625 3.359375 L 12.5 0.375 C 12.300781 0.394531 12.097656 0.410156 11.890625 0.421875 C 11.691406 0.429688 11.484375 0.4375 11.265625 0.4375 Z M 13.03125 -8.78125 L 14.3125 -5.53125 C 14.820312 -6.175781 15.179688 -7.078125 15.390625 -8.234375 C 15.609375 -9.398438 15.71875 -10.789062 15.71875 -12.40625 L 15.71875 -13.734375 C 15.71875 -16.347656 15.421875 -18.359375 14.828125 -19.765625 C 14.234375 -21.179688 13.097656 -21.890625 11.421875 -21.890625 L 11.125 -21.890625 C 9.445312 -21.890625 8.304688 -21.179688 7.703125 -19.765625 C 7.097656 -18.359375 6.796875 -16.347656 6.796875 -13.734375 L 6.796875 -12.40625 C 6.796875 -9.894531 7.070312 -7.941406 7.625 -6.546875 C 8.175781 -5.148438 9.195312 -4.382812 10.6875 -4.25 L 8.953125 -8.78125 Z M 13.03125 -8.78125 "/></g></g></g><g fill="#ffffff" fill-opacity="1"><g transform="translate(193.236059, 51.527195)"><g><path d="M 7.3125 -9.390625 L 7.3125 0 L 1.875 0 L 1.875 -26.140625 L 10.453125 -26.140625 C 11.523438 -26.140625 12.59375 -26.035156 13.65625 -25.828125 C 14.71875 -25.628906 15.695312 -25.253906 16.59375 -24.703125 C 17.488281 -24.160156 18.203125 -23.359375 18.734375 -22.296875 C 19.273438 -21.242188 19.546875 -19.84375 19.546875 -18.09375 L 19.546875 -17.421875 C 19.546875 -15.328125 19.148438 -13.710938 18.359375 -12.578125 C 17.578125 -11.453125 16.597656 -10.644531 15.421875 -10.15625 L 19.546875 0 L 13.671875 0 L 10.09375 -9.390625 Z M 7.3125 -14.078125 L 10.6875 -14.078125 C 11.175781 -14.078125 11.675781 -14.164062 12.1875 -14.34375 C 12.707031 -14.519531 13.144531 -14.859375 13.5 -15.359375 C 13.863281 -15.867188 14.046875 -16.613281 14.046875 -17.59375 L 14.046875 -17.9375 C 14.046875 -18.914062 13.863281 -19.65625 13.5 -20.15625 C 13.144531 -20.65625 12.707031 -20.992188 12.1875 -21.171875 C 11.675781 -21.359375 11.175781 -21.453125 10.6875 -21.453125 L 7.3125 -21.453125 Z M 7.3125 -14.078125 "/></g></g></g></svg>